<?xml version="1.0" encoding="UTF-8" standalone="no"?>
<!-- Created with Inkscape (http://www.inkscape.org/) -->

<svg
   xmlns:dc="http://purl.org/dc/elements/1.1/"
   xmlns:cc="http://creativecommons.org/ns#"
   xmlns:rdf="http://www.w3.org/1999/02/22-rdf-syntax-ns#"
   xmlns:svg="http://www.w3.org/2000/svg"
   xmlns="http://www.w3.org/2000/svg"
   xmlns:sodipodi="http://sodipodi.sourceforge.net/DTD/sodipodi-0.dtd"
   xmlns:inkscape="http://www.inkscape.org/namespaces/inkscape"
   id="svg2816"
   version="1.1"
   inkscape:version="0.47 r22583"
   width="100"
   height="40.150002"
   xml:space="preserve"
   sodipodi:docname="FSAFoodHygieneRatings.pdf"><metadata
     id="metadata2822"><rdf:RDF><cc:Work
         rdf:about=""><dc:format>image/svg+xml</dc:format><dc:type
           rdf:resource="http://purl.org/dc/dcmitype/StillImage" /><dc:title></dc:title></cc:Work></rdf:RDF></metadata><defs
     id="defs2820"><inkscape:perspective
       sodipodi:type="inkscape:persp3d"
       inkscape:vp_x="0 : 0.5 : 1"
       inkscape:vp_y="0 : 1000 : 0"
       inkscape:vp_z="1 : 0.5 : 1"
       inkscape:persp3d-origin="0.5 : 0.33333333 : 1"
       id="perspective2824" /><clipPath
       clipPathUnits="userSpaceOnUse"
       id="clipPath2834"><path
         d="m 0,595.276 419.528,0 L 419.528,0 0,0 0,595.276 z"
         id="path2836" /></clipPath><clipPath
       clipPathUnits="userSpaceOnUse"
       id="clipPath2846"><path
         d="m 0,0 419.528,0 0,434.882 L 0,434.882 0,0 z"
         id="path2848" /></clipPath><clipPath
       clipPathUnits="userSpaceOnUse"
       id="clipPath2858"><path
         d="m 0,346.465 419.528,0 0,248.81 -419.528,0 0,-248.81 z"
         id="path2860" /></clipPath><clipPath
       clipPathUnits="userSpaceOnUse"
       id="clipPath2870"><path
         d="m 293.15,523.797 103.583,0 0,51.636 -103.583,0 0,-51.636 z"
         id="path2872" /></clipPath><clipPath
       clipPathUnits="userSpaceOnUse"
       id="clipPath2950"><path
         d="m 293.15,523.798 103.583,0 0,51.635 -103.583,0 0,-51.635 z"
         id="path2952" /></clipPath><clipPath
       clipPathUnits="userSpaceOnUse"
       id="clipPath2966"><path
         d="m 293.15,523.797 103.583,0 0,51.636 -103.583,0 0,-51.636 z"
         id="path2968" /></clipPath><clipPath
       clipPathUnits="userSpaceOnUse"
       id="clipPath3030"><path
         d="m 0,0 419.528,0 0,595.276 L 0,595.276 0,0 z"
         id="path3032" /></clipPath><clipPath
       clipPathUnits="userSpaceOnUse"
       id="clipPath3122"><path
         d="m 0,0 419.528,0 0,595.276 L 0,595.276 0,0 z"
         id="path3124" /></clipPath><clipPath
       clipPathUnits="userSpaceOnUse"
       id="clipPath3140"><path
         d="m 0,0 419.528,0 0,595.276 L 0,595.276 0,0 z"
         id="path3142" /></clipPath><inkscape:perspective
       id="perspective3216"
       inkscape:persp3d-origin="0.5 : 0.33333333 : 1"
       inkscape:vp_z="1 : 0.5 : 1"
       inkscape:vp_y="0 : 1000 : 0"
       inkscape:vp_x="0 : 0.5 : 1"
       sodipodi:type="inkscape:persp3d" /></defs><sodipodi:namedview
     pagecolor="#ffffff"
     bordercolor="#666666"
     borderopacity="1"
     objecttolerance="10"
     gridtolerance="10"
     guidetolerance="10"
     inkscape:pageopacity="0"
     inkscape:pageshadow="2"
     inkscape:window-width="1920"
     inkscape:window-height="1000"
     id="namedview2818"
     showgrid="false"
     inkscape:zoom="14.353196"
     inkscape:cx="53.395663"
     inkscape:cy="20.778057"
     inkscape:window-x="-8"
     inkscape:window-y="-8"
     inkscape:window-maximized="1"
     inkscape:current-layer="g2826" /><g
     id="g2826"
     inkscape:groupmode="layer"
     inkscape:label="FSAFoodHygieneRatings"
     transform="matrix(1.25,0,0,-1.25,-366.43702,708.23818)"><g
       id="g3154"
       transform="matrix(0.76460731,0,0,0.76460731,69.395435,126.25635)"><g
         id="g3301"
         style="fill:#006f51;fill-opacity:1"><g
           style="fill:#006f51;fill-opacity:1"
           clip-path="url(#clipPath2870)"
           id="g2868"><g
             style="fill:#006f51;fill-opacity:1"
             transform="translate(339.5762,561.4983)"
             id="g2874"><path
               id="path2876"
               style="fill:#006f51;fill-opacity:1;fill-rule:nonzero;stroke:none"
               d="m 0,0 c -0.154,0.001 -0.275,0.127 -0.276,0.279 l 0,9.862 c 0.001,0.152 0.122,0.278 0.276,0.279 l 5.184,0 c 0.16,0 0.292,-0.124 0.292,-0.279 l 0,-0.765 C 5.468,9.209 5.333,9.101 5.184,9.097 l -3.784,0 0,-2.912 3.034,0 C 4.59,6.184 4.71,6.059 4.712,5.906 l 0,-0.749 C 4.71,5.004 4.587,4.879 4.434,4.877 l -3.034,0 0,-4.598 C 1.399,0.126 1.277,0.001 1.123,0 L 0,0 z" /></g><g
             style="fill:#006f51;fill-opacity:1"
             transform="translate(347.23,563.1315)"
             id="g2878"><path
               id="path2880"
               style="fill:#006f51;fill-opacity:1;fill-rule:nonzero;stroke:none"
               d="m 0,0 c 0.304,-0.381 0.821,-0.6 1.457,-0.6 1.354,0.009 2,0.883 2.016,2.854 C 3.457,4.225 2.813,5.083 1.441,5.094 0.07,5.083 -0.558,4.242 -0.576,2.224 -0.574,1.1 -0.413,0.511 -0.001,0 m 1.442,6.372 c 1.156,0 2.094,-0.386 2.737,-1.1 C 4.82,4.558 5.164,3.527 5.164,2.254 5.164,0.988 4.817,-0.049 4.178,-0.772 3.541,-1.494 2.617,-1.893 1.492,-1.893 l -0.004,0 0,0 c -1.15,-10e-4 -2.096,0.398 -2.747,1.118 -0.653,0.721 -1.007,1.755 -1.007,3.014 0,1.266 0.347,2.3 0.99,3.019 0.642,0.72 1.577,1.114 2.717,1.114" /></g><g
             style="fill:#006f51;fill-opacity:1"
             transform="translate(355.3966,563.1315)"
             id="g2882"><path
               id="path2884"
               style="fill:#006f51;fill-opacity:1;fill-rule:nonzero;stroke:none"
               d="M 0,0 C 0.304,-0.381 0.822,-0.6 1.457,-0.6 2.812,-0.591 3.458,0.283 3.473,2.254 3.458,4.225 2.814,5.083 1.443,5.094 0.069,5.083 -0.558,4.242 -0.575,2.224 -0.574,1.1 -0.413,0.511 0,0 m 1.443,6.372 c 1.154,0 2.092,-0.386 2.735,-1.1 C 4.821,4.558 5.164,3.527 5.164,2.254 5.164,0.988 4.818,-0.049 4.18,-0.772 3.542,-1.494 2.616,-1.893 1.492,-1.893 l -0.006,0 c -1.147,-10e-4 -2.093,0.398 -2.744,1.118 -0.652,0.721 -1.007,1.755 -1.007,3.014 0,1.266 0.346,2.3 0.989,3.019 0.64,0.72 1.577,1.114 2.719,1.114" /></g><g
             style="fill:#006f51;fill-opacity:1"
             transform="translate(365.3648,568.2101)"
             id="g2886"><path
               id="path2888"
               style="fill:#006f51;fill-opacity:1;fill-rule:nonzero;stroke:none"
               d="m 0,0 c -0.741,-0.001 -1.33,-0.248 -1.745,-0.741 -0.443,-0.514 -0.598,-1.035 -0.601,-2.13 0.01,-1.705 0.862,-2.662 2.33,-2.671 0.29,0 0.58,0.045 0.821,0.118 0.491,0.177 0.584,0.293 0.598,0.704 l 0,3.852 C 1.396,-0.515 1.333,-0.4 1.126,-0.259 0.852,-0.091 0.451,0 0.005,0 L 0,0 z m -3.03,-5.738 c -0.648,0.703 -1.008,1.708 -1.008,2.914 0.005,2.401 1.546,4.112 3.724,4.117 C 0.228,1.291 0.794,1.171 1.143,0.936 L 1.285,0.834 C 1.363,0.79 1.372,0.785 1.403,0.783 l 0,3.09 c 0.003,0.186 0.148,0.336 0.336,0.34 l 0.943,0 c 0.199,0 0.336,-0.165 0.336,-0.34 l 0,-10.244 C 3.016,-6.557 2.87,-6.709 2.682,-6.712 l -0.778,0 c -0.19,0 -0.337,0.153 -0.35,0.345 C 1.503,-6.375 1.456,-6.392 1.394,-6.426 L 1.264,-6.485 C 0.796,-6.724 0.253,-6.834 -0.33,-6.834 c -1.118,-0.001 -2.053,0.394 -2.7,1.096" /></g><g
             style="fill:#006f51;fill-opacity:1"
             transform="translate(339.0661,551.7321)"
             id="g2890"><path
               id="path2892"
               style="fill:#006f51;fill-opacity:1;fill-rule:nonzero;stroke:none"
               d="m 0,0 c 0.089,0.002 0.171,-0.034 0.304,-0.127 0.467,-0.334 1.296,-0.578 1.959,-0.577 1.053,0.01 1.666,0.563 1.672,1.449 0,0.247 -0.043,0.478 -0.123,0.671 C 3.684,1.686 3.546,1.831 3.037,2.198 L 1.272,3.452 C 0.951,3.669 0.689,3.889 0.503,4.11 0.105,4.549 -0.124,5.2 -0.126,5.882 -0.127,6.733 0.175,7.435 0.727,7.915 1.278,8.397 2.071,8.654 3.042,8.654 3.791,8.653 4.625,8.5 5.216,8.231 5.384,8.18 5.487,8.031 5.46,7.839 l 0,-0.872 C 5.459,6.877 5.457,6.806 5.419,6.735 5.379,6.659 5.285,6.623 5.214,6.627 5.114,6.623 5.031,6.668 4.911,6.769 4.388,7.14 3.783,7.346 3.117,7.346 2.12,7.336 1.556,6.843 1.55,6.035 1.556,5.534 1.726,5.238 2.326,4.812 L 4.168,3.543 C 5.291,2.775 5.765,2.02 5.76,0.96 5.76,0.06 5.424,-0.69 4.824,-1.208 4.224,-1.726 3.368,-2.011 2.338,-2.011 1.574,-2.01 0.671,-1.874 0.096,-1.637 c -0.241,0.076 -0.385,0.219 -0.372,0.425 l 0,0.916 C -0.274,-0.149 -0.167,-0.001 0,0" /></g><g
             style="fill:#006f51;fill-opacity:1"
             transform="translate(345.2808,556.4327)"
             id="g2894"><path
               id="path2896"
               style="fill:#006f51;fill-opacity:1;fill-rule:nonzero;stroke:none"
               d="m 0,0 c -0.187,0.004 -0.333,0.155 -0.336,0.34 l 0,0.612 C -0.333,1.138 -0.187,1.289 0,1.293 l 0.713,0 0,1.693 c 0.002,0.175 0.138,0.34 0.337,0.34 l 0.943,0 C 2.179,3.323 2.326,3.172 2.329,2.986 l 0,-1.693 2.046,0 C 4.561,1.289 4.708,1.138 4.713,0.952 l 0,-0.612 C 4.713,0.142 4.551,0.001 4.375,0 l -2.046,0.001 0,-4.324 C 2.35,-5.137 2.591,-5.4 3.296,-5.419 3.549,-5.42 3.801,-5.361 4.007,-5.25 l 0.177,0.097 c 0.083,0.034 0.152,0.055 0.221,0.055 0.089,0.002 0.176,-0.038 0.229,-0.107 0.055,-0.068 0.079,-0.155 0.079,-0.249 l 0,-0.55 C 4.726,-6.166 4.642,-6.323 4.487,-6.377 4.084,-6.59 3.433,-6.711 2.877,-6.712 c -0.672,0 -1.216,0.187 -1.592,0.545 -0.376,0.359 -0.573,0.882 -0.572,1.524 L 0.713,0 0,0" /></g><g
             style="fill:#006f51;fill-opacity:1"
             transform="translate(353.7224,553.3803)"
             id="g2898"><path
               id="path2900"
               style="fill:#006f51;fill-opacity:1;fill-rule:nonzero;stroke:none"
               d="m 0,0 0,0 c -1.213,-0.428 -1.44,-0.674 -1.452,-1.393 0.011,-0.657 0.376,-0.958 1.267,-0.974 0.433,0 0.871,0.089 1.21,0.234 0.323,0.175 0.357,0.213 0.372,0.664 l 0,1.968 -1.394,-0.498 m -3.146,-1.454 c -0.002,0.723 0.351,1.359 0.977,1.758 0.525,0.345 1.308,0.698 2.11,0.961 l 1.09,0.366 C 1.358,1.766 1.385,1.8 1.397,2.001 l 0,0.337 C 1.384,2.934 1.089,3.156 0.219,3.174 -0.554,3.176 -1.441,2.947 -1.966,2.613 -2.095,2.52 -2.191,2.484 -2.298,2.487 -2.385,2.486 -2.472,2.513 -2.532,2.576 -2.594,2.638 -2.62,2.724 -2.618,2.811 l 0,0.612 c -0.008,0.215 0.042,0.383 0.2,0.477 0.497,0.314 1.835,0.563 2.832,0.567 0.839,0 1.491,-0.178 1.94,-0.549 C 2.802,3.547 3.029,2.986 3.027,2.277 l 0,-5.473 C 3.025,-3.382 2.879,-3.534 2.691,-3.537 l -0.763,0 c -0.113,0 -0.219,0.028 -0.291,0.107 -0.063,0.071 -0.086,0.16 -0.09,0.258 C 1.449,-3.177 1.396,-3.193 1.254,-3.251 L 0.985,-3.373 c -0.386,-0.179 -1.019,-0.285 -1.516,-0.286 -1.523,0.002 -2.61,0.898 -2.612,2.206" /></g><g
             style="fill:#006f51;fill-opacity:1"
             transform="translate(359.2906,557.3439)"
             id="g2902"><path
               id="path2904"
               style="fill:#006f51;fill-opacity:1;fill-rule:nonzero;stroke:none"
               d="m 0,0 c 0.116,0 0.179,0.021 0.395,0.114 0.194,0.076 0.294,0.122 0.361,0.138 0.463,0.173 0.927,0.252 1.418,0.252 0.83,0.001 1.521,-0.257 2.004,-0.732 0.48,-0.474 0.746,-1.16 0.745,-1.994 l 0,-4.937 C 4.919,-7.345 4.774,-7.497 4.586,-7.5 l -0.959,0 c -0.188,0.003 -0.333,0.155 -0.336,0.341 l 0,4.723 C 3.273,-1.279 2.81,-0.807 1.68,-0.788 1.316,-0.788 0.954,-0.848 0.657,-0.964 0.243,-1.136 0.153,-1.273 0.142,-1.641 l 0,-5.518 C 0.139,-7.345 -0.006,-7.497 -0.193,-7.5 l -0.945,0 c -0.187,0.003 -0.332,0.155 -0.336,0.341 l 0,7.2 c 0.004,0.185 0.149,0.338 0.336,0.341 l 0.734,0 C -0.276,0.38 -0.174,0.372 -0.093,0.29 -0.016,0.208 -0.009,0.109 -0.008,0 L 0,0" /></g><g
             style="fill:#006f51;fill-opacity:1"
             transform="translate(369.138,556.5555)"
             id="g2906"><path
               id="path2908"
               style="fill:#006f51;fill-opacity:1;fill-rule:nonzero;stroke:none"
               d="m 0,0 c -0.741,-0.002 -1.332,-0.248 -1.746,-0.742 -0.441,-0.514 -0.599,-1.035 -0.602,-2.129 0.011,-1.706 0.862,-2.663 2.333,-2.671 0.287,0 0.577,0.044 0.819,0.118 0.493,0.177 0.583,0.292 0.598,0.703 l 0,3.853 C 1.395,-0.516 1.332,-0.4 1.124,-0.259 0.853,-0.091 0.451,0 0.004,0 L 0,0 z m -3.033,-5.738 c -0.646,0.703 -1.006,1.707 -1.006,2.913 0.004,2.402 1.547,4.113 3.724,4.117 C 0.226,1.29 0.792,1.171 1.142,0.936 L 1.285,0.834 C 1.361,0.79 1.37,0.785 1.402,0.783 l 0,3.089 C 1.404,4.057 1.55,4.209 1.738,4.213 l 0.943,0 c 0.198,0 0.337,-0.165 0.337,-0.341 l 0,-10.243 C 3.015,-6.558 2.868,-6.709 2.681,-6.712 l -0.779,0 c -0.19,0 -0.338,0.152 -0.351,0.345 C 1.502,-6.375 1.454,-6.393 1.394,-6.427 L 1.264,-6.486 C 0.795,-6.725 0.252,-6.834 -0.33,-6.834 c -1.12,-0.001 -2.053,0.392 -2.703,1.096" /></g><g
             style="fill:#006f51;fill-opacity:1"
             transform="translate(376.0657,553.3803)"
             id="g2910"><path
               id="path2912"
               style="fill:#006f51;fill-opacity:1;fill-rule:nonzero;stroke:none"
               d="m 0,0 0,0 c -1.212,-0.428 -1.441,-0.674 -1.453,-1.393 0.011,-0.657 0.377,-0.958 1.268,-0.974 0.434,0 0.87,0.089 1.21,0.234 0.323,0.175 0.357,0.213 0.371,0.664 l 0,1.968 -1.394,-0.498 m -3.146,-1.454 c -0.002,0.723 0.352,1.359 0.979,1.758 0.522,0.345 1.308,0.698 2.109,0.961 L 1.035,1.632 C 1.358,1.766 1.386,1.8 1.396,2.001 l 0,0.337 C 1.383,2.934 1.088,3.156 0.219,3.174 -0.554,3.176 -1.442,2.947 -1.966,2.613 -2.098,2.52 -2.191,2.484 -2.298,2.487 -2.386,2.486 -2.473,2.513 -2.534,2.576 -2.595,2.638 -2.621,2.724 -2.621,2.811 l 0,0.612 c -0.004,0.215 0.045,0.383 0.203,0.477 0.496,0.314 1.834,0.563 2.832,0.567 0.839,0 1.491,-0.178 1.939,-0.549 C 2.802,3.547 3.029,2.986 3.027,2.277 l 0,-5.473 C 3.024,-3.383 2.877,-3.534 2.691,-3.537 l -0.764,0 c -0.112,0 -0.219,0.028 -0.29,0.107 -0.064,0.071 -0.086,0.16 -0.09,0.258 C 1.449,-3.177 1.396,-3.193 1.253,-3.251 L 0.986,-3.373 c -0.387,-0.179 -1.019,-0.285 -1.516,-0.286 -1.524,0.002 -2.611,0.898 -2.614,2.206" /></g><g
             style="fill:#006f51;fill-opacity:1"
             transform="translate(380.4208,549.8438)"
             id="g2914"><path
               id="path2916"
               style="fill:#006f51;fill-opacity:1;fill-rule:nonzero;stroke:none"
               d="m 0,0 c -0.188,0.003 -0.334,0.155 -0.336,0.341 l 0,7.2 C -0.334,7.727 -0.188,7.878 0,7.882 l 0.764,0 C 0.868,7.882 0.965,7.86 1.037,7.791 1.109,7.721 1.13,7.625 1.13,7.527 l 0,-0.147 c 0.08,0.004 0.131,0.021 0.273,0.092 0.606,0.31 1.014,0.411 1.64,0.41 C 3.31,7.88 3.489,7.863 3.626,7.781 3.769,7.696 3.816,7.537 3.811,7.373 l 0,-0.689 C 3.811,6.502 3.698,6.314 3.492,6.313 3.463,6.315 3.414,6.31 3.356,6.334 L 3.288,6.347 C 3.014,6.406 2.596,6.452 2.292,6.452 1.416,6.426 1.227,6.283 1.205,5.66 l 0,-5.319 C 1.205,0.165 1.076,0.001 0.884,0 L 0,0 z" /></g><g
             style="fill:#006f51;fill-opacity:1"
             transform="translate(388.2308,556.5555)"
             id="g2918"><path
               id="path2920"
               style="fill:#006f51;fill-opacity:1;fill-rule:nonzero;stroke:none"
               d="m 0,0 c -0.741,-0.002 -1.331,-0.248 -1.744,-0.742 -0.443,-0.514 -0.599,-1.035 -0.603,-2.129 0.013,-1.706 0.862,-2.663 2.332,-2.671 0.288,0 0.578,0.044 0.82,0.118 0.491,0.177 0.583,0.292 0.597,0.703 l 0,3.853 C 1.395,-0.516 1.334,-0.4 1.125,-0.259 0.852,-0.091 0.453,0 0.004,0 L 0.001,0 0,0 z m -3.029,-5.738 c -0.649,0.703 -1.008,1.707 -1.008,2.913 0.005,2.402 1.546,4.113 3.721,4.117 C 0.227,1.29 0.792,1.171 1.144,0.936 L 1.286,0.834 C 1.361,0.79 1.371,0.785 1.402,0.783 l 0,3.089 c 0.003,0.186 0.149,0.337 0.336,0.341 l 0.944,0 c 0.198,0 0.335,-0.166 0.336,-0.341 l 0,-10.243 C 3.015,-6.557 2.868,-6.709 2.682,-6.712 l -0.779,0 c -0.189,0 -0.338,0.152 -0.35,0.345 C 1.502,-6.375 1.456,-6.392 1.394,-6.426 l -0.128,-0.06 c -0.471,-0.239 -1.013,-0.348 -1.595,-0.348 -1.121,-0.001 -2.054,0.392 -2.7,1.096" /></g><g
             style="fill:#006f51;fill-opacity:1"
             transform="translate(393.5852,553.2984)"
             id="g2922"><path
               id="path2924"
               style="fill:#006f51;fill-opacity:1;fill-rule:nonzero;stroke:none"
               d="m 0,0 c -0.586,0.336 -0.828,0.515 -1.072,0.783 -0.353,0.36 -0.528,0.853 -0.527,1.454 -0.001,0.705 0.248,1.291 0.7,1.694 0.453,0.402 1.1,0.618 1.884,0.618 C 1.568,4.55 2.038,4.438 2.59,4.203 2.881,4.088 3.016,3.948 2.999,3.72 l 0,-0.704 C 2.998,2.856 2.908,2.676 2.722,2.675 2.611,2.676 2.526,2.724 2.411,2.799 1.801,3.16 1.493,3.254 0.97,3.256 0.309,3.241 0.028,3.003 0.017,2.481 0.017,2.234 0.109,2.023 0.28,1.875 0.401,1.764 0.591,1.644 0.965,1.43 L 1.534,1.094 c 0.632,-0.368 0.92,-0.592 1.157,-0.9 0.287,-0.376 0.456,-0.914 0.456,-1.428 0,-0.707 -0.262,-1.301 -0.734,-1.711 -0.47,-0.409 -1.139,-0.632 -1.939,-0.632 -0.627,0 -1.183,0.11 -1.781,0.345 -0.321,0.111 -0.462,0.262 -0.443,0.514 l 0,0.658 c 0.002,0.091 0.017,0.174 0.067,0.245 0.049,0.07 0.137,0.114 0.226,0.112 0.091,0.002 0.18,-0.031 0.266,-0.094 0.571,-0.343 1.073,-0.488 1.591,-0.488 0.749,0.011 1.126,0.325 1.132,0.868 -0.003,0.385 -0.188,0.658 -0.617,0.896 L 0.48,-0.276 0,0" /></g><g
             style="fill:#006f51;fill-opacity:1"
             transform="translate(341.1202,543.0886)"
             id="g2926"><path
               id="path2928"
               style="fill:#006f51;fill-opacity:1;fill-rule:nonzero;stroke:none"
               d="M 0,0 2.604,0 1.302,4.108 0,0 z m 4.103,-4.701 -1.114,3.516 -3.389,0 -1.129,-3.517 C -1.564,-4.832 -1.676,-4.898 -1.783,-4.9 l -0.886,0 c -0.085,0 -0.159,0.01 -0.227,0.057 -0.068,0.05 -0.095,0.135 -0.092,0.207 l 0,0.046 0,0.021 0.006,0.018 0.059,0.15 3.207,9.281 0.103,0.288 c 0.09,0.342 0.309,0.496 0.706,0.475 l 0.628,0 c 0.268,0 0.412,-0.014 0.536,-0.119 l 0,0 C 2.405,5.42 2.481,5.207 2.591,4.893 L 5.693,-4.388 5.732,-4.514 C 5.769,-4.572 5.756,-4.611 5.76,-4.636 5.763,-4.722 5.711,-4.811 5.638,-4.849 5.566,-4.89 5.487,-4.9 5.394,-4.9 l -1.02,0 -0.004,0 -0.001,0 c -0.121,0 -0.224,0.085 -0.266,0.199" /></g><g
             style="fill:#006f51;fill-opacity:1"
             transform="translate(351.9472,544.5844)"
             id="g2930"><path
               id="path2932"
               style="fill:#006f51;fill-opacity:1;fill-rule:nonzero;stroke:none"
               d="m 0,0 c -0.271,0.196 -0.715,0.317 -1.223,0.315 -1.468,-0.009 -2.289,-0.961 -2.301,-2.732 0.009,-1.658 0.882,-2.681 2.271,-2.686 0.43,-0.001 0.898,0.118 1.206,0.277 0.23,0.137 0.261,0.191 0.272,0.483 l 0,3.883 c -0.013,0.303 -0.014,0.303 -0.222,0.459 m -4.371,-9.108 c -0.326,0.12 -0.485,0.277 -0.473,0.531 l 0,0.642 c 0.002,0.181 0.107,0.371 0.308,0.371 0.096,-10e-4 0.176,-0.04 0.248,-0.075 l 0.193,-0.105 c 0.577,-0.312 1.468,-0.524 2.194,-0.523 0.674,-10e-4 1.269,0.151 1.644,0.407 0.321,0.234 0.476,0.595 0.479,1.331 l 0,0.601 C 0.204,-5.938 0.176,-5.952 0.128,-5.973 c -0.565,-0.296 -1.094,-0.423 -1.666,-0.423 -1.097,-0.001 -2.022,0.393 -2.667,1.086 -0.646,0.692 -1.01,1.678 -1.01,2.847 0,1.194 0.391,2.214 1.07,2.934 0.679,0.721 1.644,1.138 2.773,1.138 0.461,0 0.894,-0.078 1.249,-0.228 C -0.03,1.334 0.109,1.256 0.266,1.152 0.333,1.12 0.347,1.11 0.375,1.106 l 0,0.009 c 0,0.106 0.019,0.199 0.084,0.273 0.064,0.072 0.159,0.099 0.25,0.098 l 0.794,0 c 0.2,0 0.337,-0.165 0.338,-0.34 l 0,-7.599 c 0,-1.002 -0.323,-1.789 -0.951,-2.318 -0.629,-0.528 -1.542,-0.79 -2.713,-0.79 -0.868,0 -1.864,0.169 -2.545,0.452" /></g><g
             style="fill:#006f51;fill-opacity:1"
             transform="translate(359.9479,543.1496)"
             id="g2934"><path
               id="path2936"
               style="fill:#006f51;fill-opacity:1;fill-rule:nonzero;stroke:none"
               d="M 0,0 0,0.042 C -0.006,1.071 -0.704,1.759 -1.775,1.766 -2.789,1.762 -3.527,1.047 -3.592,0 L 0,0 z m -4.209,-4.004 c -0.649,0.696 -1.005,1.694 -1.005,2.9 0,1.257 0.331,2.293 0.937,3.018 0.607,0.726 1.492,1.131 2.56,1.13 0.999,0 1.84,-0.357 2.423,-0.987 0.585,-0.629 0.911,-1.526 0.911,-2.595 l 0,-0.413 c 0,-0.176 -0.138,-0.342 -0.337,-0.342 l -4.877,0 c 0.015,-1.516 0.927,-2.492 2.33,-2.498 0.496,-10e-4 1.174,0.206 1.764,0.554 l 0.101,0.05 c 0.096,0.069 0.196,0.082 0.264,0.083 0.192,0 0.321,-0.172 0.321,-0.355 l 0,-0.597 c 0.019,-0.259 -0.109,-0.428 -0.395,-0.528 -0.662,-0.314 -1.512,-0.499 -2.279,-0.5 -1.133,0 -2.071,0.386 -2.718,1.08" /></g><g
             style="fill:#006f51;fill-opacity:1"
             transform="translate(363.9409,545.6882)"
             id="g2938"><path
               id="path2940"
               style="fill:#006f51;fill-opacity:1;fill-rule:nonzero;stroke:none"
               d="M 0,0 C 0.114,0.001 0.18,0.021 0.395,0.114 0.589,0.19 0.688,0.236 0.755,0.253 1.216,0.425 1.682,0.504 2.173,0.504 3.004,0.505 3.696,0.248 4.176,-0.227 4.658,-0.701 4.921,-1.388 4.921,-2.222 l 0,-4.938 C 4.919,-7.345 4.774,-7.497 4.587,-7.5 l -0.96,0 C 3.44,-7.497 3.294,-7.346 3.291,-7.16 l 0,4.725 C 3.272,-1.279 2.809,-0.806 1.679,-0.789 1.316,-0.788 0.954,-0.848 0.654,-0.965 0.243,-1.136 0.152,-1.273 0.142,-1.639 l 0,-5.521 C 0.139,-7.346 -0.008,-7.496 -0.194,-7.5 l -0.944,0 c -0.187,0.003 -0.334,0.154 -0.336,0.34 l 0,7.202 c 0.002,0.186 0.149,0.337 0.336,0.341 l 0.734,0 C -0.277,0.381 -0.175,0.371 -0.093,0.292 -0.016,0.208 -0.01,0.11 -0.008,0 L 0,0" /></g><g
             style="fill:#006f51;fill-opacity:1"
             transform="translate(375.81,539.9393)"
             id="g2942"><path
               id="path2944"
               style="fill:#006f51;fill-opacity:1;fill-rule:nonzero;stroke:none"
               d="m 0,0 c 0.19,-0.004 0.305,-0.184 0.305,-0.387 l 0,-0.611 c 0.012,-0.198 -0.082,-0.36 -0.256,-0.435 -0.536,-0.273 -1.411,-0.439 -2.208,-0.44 -1.198,-0.001 -2.169,0.371 -2.834,1.07 -0.668,0.697 -1.023,1.712 -1.023,2.97 0,1.253 0.383,2.279 1.087,2.989 0.705,0.71 1.722,1.098 2.966,1.098 0.658,0 1.318,-0.125 1.925,-0.389 C 0.182,5.797 0.316,5.65 0.305,5.469 l 0,-0.718 C 0.305,4.569 0.2,4.38 0,4.38 -0.099,4.378 -0.169,4.412 -0.294,4.486 -0.915,4.831 -1.381,4.96 -1.993,4.96 -3.494,4.95 -4.312,4.014 -4.325,2.228 c 0.013,-1.816 0.864,-2.8 2.362,-2.809 0.533,0 1.084,0.147 1.621,0.451 l 0.063,0.025 C -0.183,-0.041 -0.096,-0.002 0,0" /></g></g><g
           id="g2946"
           style="fill:#006f51;fill-opacity:1"><g
             id="g2948"
             clip-path="url(#clipPath2950)"
             style="fill:#006f51;fill-opacity:1"><path
               id="path2956"
               style="fill:#006f51;fill-opacity:1;fill-rule:nonzero;stroke:none"
               d="m 382.1317,545.7031 c 0.066,0.25 0.251,0.384 0.481,0.368 l 0.629,0 c 0.113,-10e-4 0.205,-0.01 0.287,-0.051 0.083,-0.036 0.145,-0.136 0.139,-0.229 10e-4,-0.083 -0.023,-0.151 -0.066,-0.252 l -2.472,-6.91 -0.315,-0.903 c -0.287,-0.785 -0.617,-1.55 -0.876,-2.033 -0.286,-0.535 -0.67,-0.792 -1.23,-0.792 l -0.022,0 -0.136,0 c -0.139,10e-4 -0.251,0.011 -0.343,0.086 -0.093,0.078 -0.112,0.193 -0.112,0.316 l 0,0.565 c 0,0.229 0.106,0.447 0.337,0.448 l 0.134,0 c 0.116,0.007 0.141,0.019 0.235,0.177 0.145,0.234 0.306,0.581 0.457,1.004 l 0.327,0.893 -2.843,7.081 c -0.059,0.136 -0.085,0.204 -0.085,0.289 -0.004,0.096 0.046,0.196 0.127,0.245 0.081,0.05 0.176,0.065 0.284,0.066 l 0.824,0 c 0.261,0.01 0.462,-0.115 0.539,-0.348 l 2.015,-5.312 1.685,5.291" /></g></g></g><g
         id="g3291"><path
           id="path2960"
           style="fill:#6cb33f;fill-opacity:1;fill-rule:nonzero;stroke:none"
           d="m 302.7912,542.5458 -0.034,20.521 c 0,0.82 0.483,1.487 1.083,1.491 0.55,0 1,-0.553 1.079,-1.273 l 0.021,-16.62 c 0.005,-0.823 0.492,-1.489 1.087,-1.489 0.579,-10e-4 1.047,0.615 1.084,1.39 l 0,0.019 c 0,0.027 0.003,0.055 0.003,0.084 l -0.025,16.484 c 0.026,0.785 0.499,1.411 1.078,1.412 0.495,-10e-4 0.914,-0.459 1.045,-1.083 l -0.007,3.432 -0.014,0 c -0.01,3.228 2.011,6.979 4.854,8.515 -5.174,0.108 -10.387,-1.734 -14.452,-5.562 -8.239,-7.757 -8.628,-20.719 -0.873,-28.959 1.997,-2.124 4.347,-3.723 6.874,-4.798 -1.448,1.636 -2.266,3.598 -2.69,5.379 -0.048,0.208 -0.113,0.817 -0.113,1.057" /><g
           clip-path="url(#clipPath2966)"
           id="g2964"><g
             transform="translate(324.3589,567.2061)"
             id="g2970"><path
               id="path2972"
               style="fill:#bed9a8;fill-opacity:1;fill-rule:nonzero;stroke:none"
               d="m 0,0 0.035,-20.519 c 10e-4,-0.823 -0.486,-1.488 -1.083,-1.489 -0.547,-0.001 -0.996,0.552 -1.075,1.271 l -0.026,16.62 c -0.003,0.824 -0.491,1.487 -1.09,1.492 -0.574,-0.005 -1.043,-0.622 -1.08,-1.397 l 0,-0.014 c 0,-0.029 -0.003,-0.058 0,-0.083 l 0.024,-16.488 c -0.03,-0.787 -0.503,-1.409 -1.081,-1.411 -0.498,-10e-4 -0.914,0.459 -1.046,1.082 l 0.022,-3.395 0.006,-0.033 c 0.003,-3.126 -1.887,-6.745 -4.591,-8.37 5.125,-0.063 10.277,1.776 14.307,5.568 8.234,7.756 8.621,20.719 0.868,28.958 -2.111,2.237 -4.608,3.896 -7.291,4.97 1.61,-1.661 2.73,-4.007 2.991,-6.103 C -0.041,0.463 0,0.241 0,0" /></g><g
             transform="translate(314.0449,575.4285)"
             id="g2974"><path
               id="path2976"
               style="fill:#006f51;fill-opacity:1;fill-rule:nonzero;stroke:none"
               d="m 0,0 c -2.843,-1.536 -4.863,-5.286 -4.86,-8.517 l 0.008,-0.015 0.02,-3.415 0.027,-16.812 c 0.003,-0.822 0.491,-1.489 1.089,-1.485 0.427,0 0.792,0.339 0.967,0.831 0.008,0.007 0.01,0.012 0.01,0.019 0.021,0.068 0.044,0.14 0.058,0.215 0,0.02 0.01,0.038 0.014,0.059 0.01,0.063 0.016,0.128 0.022,0.196 0.003,0.055 0.012,0.107 0.011,0.161 l -0.012,16.181 0.004,0.324 c 0.025,0.568 0.288,1.047 0.645,1.264 0.011,0.005 0.018,0.013 0.024,0.018 0.014,0.005 0.019,0.007 0.031,0.014 0.118,0.066 0.254,0.102 0.393,0.104 0.511,0 0.939,-0.489 1.058,-1.143 l 0.012,-0.084 c 0.01,-0.085 0.001,-0.181 0.007,-0.269 l 0.026,-16.658 c 0.089,-0.696 0.534,-1.229 1.069,-1.225 0.138,-0.001 0.269,0.038 0.391,0.102 0.006,0 0.013,0 0.017,0.001 0.01,0.01 0.016,0.02 0.031,0.028 0.374,0.232 0.632,0.752 0.632,1.351 l -0.006,16.283 0.009,0.224 c 0,0.022 0.006,0.047 0.009,0.069 0.002,0.066 0.012,0.133 0.024,0.194 0.002,0.02 0.009,0.038 0.011,0.059 0.015,0.073 0.035,0.149 0.058,0.22 l 0.007,0.015 c 0.173,0.499 0.542,0.842 0.972,0.839 0.599,0.003 1.087,-0.666 1.087,-1.488 l 0.027,-16.82 c 0.132,-0.622 0.548,-1.078 1.046,-1.08 0.578,0.002 1.051,0.624 1.081,1.41 l -0.024,16.486 c -0.003,0.028 0,0.057 0,0.086 l 0,0.014 c 0.037,0.777 0.506,1.391 1.08,1.396 0.599,-0.005 1.087,-0.667 1.09,-1.492 l 0.026,-16.62 c 0.079,-0.718 0.528,-1.273 1.075,-1.271 0.597,0.001 1.083,0.666 1.083,1.49 L 10.314,-8.22 c 0,0.238 -0.018,0.484 -0.049,0.714 C 9.95,-5.417 8.823,-3.12 7.213,-1.461 4.906,-0.538 2.458,-0.046 0,0" /></g><g
             transform="translate(313.3736,534.4716)"
             id="g2978"><path
               id="path2980"
               style="fill:#ffffff;fill-opacity:1;fill-rule:nonzero;stroke:none"
               d="M 0,0 C 2.842,1.536 4.599,5.16 4.596,8.391 L 4.588,8.407 4.568,11.821 4.543,28.633 C 4.539,29.455 4.05,30.123 3.453,30.119 3.026,30.119 2.661,29.78 2.486,29.287 2.477,29.281 2.476,29.275 2.476,29.268 2.454,29.201 2.434,29.128 2.418,29.054 2.418,29.032 2.41,29.015 2.404,28.994 2.393,28.931 2.389,28.866 2.382,28.798 2.379,28.743 2.369,28.691 2.372,28.637 L 2.385,12.456 2.379,12.131 C 2.355,11.565 2.091,11.085 1.734,10.868 1.722,10.863 1.716,10.855 1.71,10.849 1.696,10.845 1.69,10.843 1.679,10.836 1.56,10.77 1.425,10.734 1.287,10.731 c -0.511,0 -0.941,0.49 -1.059,1.145 l -0.012,0.083 c -0.009,0.086 -0.001,0.18 -0.005,0.268 L 0.182,28.886 c -0.088,0.697 -0.534,1.23 -1.068,1.226 -0.138,0 -0.269,-0.039 -0.391,-0.103 -0.006,0 -0.012,0 -0.016,-0.002 -0.012,-0.009 -0.019,-0.019 -0.031,-0.027 -0.374,-0.234 -0.634,-0.752 -0.634,-1.35 l 0.006,-16.285 -0.009,-0.223 c 0,-0.022 -0.005,-0.047 -0.008,-0.069 C -1.971,11.986 -1.98,11.92 -1.993,11.859 -1.994,11.839 -2,11.821 -2.004,11.8 -2.017,11.727 -2.039,11.651 -2.063,11.58 l -0.006,-0.014 c -0.176,-0.499 -0.543,-0.842 -0.972,-0.841 -0.6,-10e-4 -1.086,0.667 -1.086,1.489 l -0.029,16.821 c -0.131,0.621 -0.548,1.077 -1.045,1.08 -0.578,-0.003 -1.052,-0.625 -1.08,-1.41 l 0.023,-16.486 c 0.003,-0.029 0,-0.057 0,-0.086 l 0,-0.014 c -0.037,-0.778 -0.507,-1.393 -1.08,-1.396 -0.598,0.003 -1.087,0.667 -1.09,1.491 l -0.025,16.62 c -0.081,0.718 -0.529,1.274 -1.076,1.27 -0.597,0 -1.084,-0.665 -1.084,-1.488 l 0.035,-20.521 c 0,-0.239 0.019,-0.485 0.052,-0.716 0.313,-2.088 1.139,-4.082 2.747,-5.741 C -5.471,0.716 -2.458,0.045 0,0" /></g></g></g></g></g></svg>